<svg width="149" height="288" viewBox="0 0 149 288" fill="none" xmlns="http://www.w3.org/2000/svg">
<path d="M50.8777 283.18V274.343L35.0337 274.229L34.8994 287.593L35.8812 287.665C40.253 287.944 58.1227 288.358 61.0579 287.448C64.3238 286.435 50.8777 283.18 50.8777 283.18Z" fill="#4CAF4F"/>
<path d="M61.43 286.621C61.43 286.766 55.4976 286.89 48.1905 286.89C40.8835 286.89 34.951 286.766 34.951 286.621C34.951 286.477 40.8835 286.353 48.1905 286.353C55.4976 286.353 61.43 286.477 61.43 286.621Z" fill="#263238"/>
<path d="M51.1567 284.988C51.0224 284.916 51.1567 284.451 51.4771 283.955C51.7975 283.459 52.2316 283.252 52.335 283.355C52.4383 283.459 52.2213 283.851 51.9112 284.275C51.6011 284.699 51.2911 285.061 51.1567 284.988Z" fill="#263238"/>
<path d="M52.1696 285.567C52.0249 285.567 52.0973 284.988 52.4073 284.441C52.7174 283.893 53.1308 283.562 53.2445 283.645C53.3582 283.727 53.1721 284.192 52.8828 284.678C52.5934 285.164 52.304 285.619 52.1696 285.567Z" fill="#263238"/>
<path d="M39.726 286.58C39.6639 286.58 39.4262 286.394 39.0852 286.001C38.6688 285.496 38.2051 285.033 37.7002 284.616C37.2038 284.22 36.6124 283.96 35.9846 283.862C35.4988 283.8 35.1888 283.862 35.1578 283.8C35.1268 283.738 35.4265 283.521 35.9949 283.479C36.7451 283.464 37.4769 283.712 38.062 284.182C38.6101 284.629 39.0724 285.172 39.4262 285.784C39.6639 286.239 39.788 286.539 39.726 286.58Z" fill="#263238"/>
<path d="M51.2084 283.324C51.2808 283.448 51.012 283.758 50.5573 283.924C50.1025 284.089 49.6995 284.027 49.6788 283.924C49.6581 283.82 49.9785 283.603 50.3713 283.459C50.764 283.314 51.1257 283.2 51.2084 283.324Z" fill="#263238"/>
<path d="M50.9603 282.467C50.9603 282.622 50.5469 282.746 50.0095 282.756C49.4721 282.766 49.0483 282.642 49.0587 282.498C49.069 282.353 49.4927 282.218 50.0095 282.208C50.5263 282.198 50.9397 282.322 50.9603 282.467Z" fill="#263238"/>
<path d="M89.8933 283.18V274.343L74.0493 274.229L73.915 287.458L74.8968 287.531C79.2686 287.81 97.1486 288.358 100.074 287.448C103.339 286.435 89.8933 283.18 89.8933 283.18Z" fill="#4CAF4F"/>
<path d="M100.446 286.642C100.446 286.787 94.5235 286.911 87.2061 286.911C79.8888 286.911 73.977 286.787 73.977 286.642C73.977 286.497 79.8991 286.373 87.2061 286.373C94.5132 286.373 100.446 286.497 100.446 286.642Z" fill="#263238"/>
<path d="M90.1723 284.988C90.0483 284.916 90.1723 284.451 90.4927 283.955C90.8131 283.459 91.2472 283.252 91.3506 283.355C91.4539 283.459 91.2369 283.851 90.9268 284.275C90.6168 284.699 90.3067 285.061 90.1723 284.988Z" fill="#263238"/>
<path d="M91.1852 285.567C91.0509 285.567 91.1129 284.988 91.4333 284.441C91.7537 283.893 92.1568 283.562 92.2704 283.645C92.3841 283.727 92.1878 284.192 91.8984 284.678C91.609 285.164 91.3299 285.619 91.1852 285.567Z" fill="#263238"/>
<path d="M78.7416 286.58C78.6796 286.58 78.4522 286.394 78.1008 286.001C77.6845 285.496 77.2207 285.033 76.7159 284.616C76.2194 284.22 75.628 283.96 75.0002 283.862C74.5248 283.8 74.2044 283.862 74.1734 283.8C74.1424 283.738 74.4421 283.521 75.0105 283.479C75.7607 283.464 76.4925 283.712 77.0776 284.182C77.6286 284.626 78.0914 285.169 78.4419 285.784C78.6796 286.239 78.8036 286.539 78.7416 286.58Z" fill="#263238"/>
<path d="M90.224 283.324C90.2964 283.448 90.0277 283.758 89.5729 283.924C89.1182 284.089 88.7151 284.027 88.6944 283.924C88.6738 283.82 88.9941 283.603 89.3869 283.459C89.7796 283.314 90.1414 283.2 90.224 283.324Z" fill="#263238"/>
<path d="M89.9966 282.467C89.9966 282.622 89.5832 282.746 89.0458 282.756C88.5084 282.766 88.095 282.642 88.1053 282.498C88.1156 282.353 88.529 282.218 89.0458 282.208C89.5626 282.198 89.9966 282.322 89.9966 282.467Z" fill="#263238"/>
<path d="M148.267 20.7673C147.853 20.3436 146.83 20.5503 146.83 20.5503C146.933 19.9552 146.933 19.347 146.83 18.7519C146.644 18.1732 145.342 18.2868 145.342 18.2868C145.282 17.7995 145.282 17.3066 145.342 16.8192C145.352 16.7112 145.329 16.6026 145.276 16.5083C145.222 16.4139 145.14 16.3385 145.042 16.2921C144.426 16.0409 143.764 15.9212 143.099 15.9407C142.303 15.3723 145.528 10.8558 146.727 9.40885C147.926 7.96191 147.709 6.83538 146.644 6.83538C145.91 6.83538 142.148 11.1762 140.991 12.6335C139.833 14.0907 136.764 18.1422 136.66 14.9072C136.557 11.6723 135.255 9.23316 134.438 8.81975C133.622 8.40633 132.754 9.37784 133.198 10.277C133.589 11.2985 133.832 12.3703 133.922 13.4603C134.034 14.3285 133.995 15.2096 133.808 16.0648C133.465 17.6559 132.999 19.2179 132.413 20.7363H132.33C132.33 20.7363 109.778 42.368 108.145 43.908C106.688 45.2929 77.3773 42.2647 71.4966 41.6445C69.4982 41.3521 67.4803 41.2139 65.4607 41.2311C62.9079 41.3448 62.4532 41.7065 59.9107 41.7376C53.4899 41.8088 47.0839 42.372 40.7491 43.4222C37.8807 43.9099 35.2013 45.176 33.0033 47.0824C30.8053 48.9888 29.1731 51.4622 28.2848 54.2329C22.3627 72.733 8.94752 116.524 6.58074 141.121C4.79228 144.365 3.1777 147.701 1.74384 151.116C0.0798669 155.643 0.482942 155.798 1.04105 155.901C2.54999 156.18 4.26565 148.056 4.90643 150.02C5.54722 151.984 1.65083 159.704 3.23213 159.932C5.29918 160.221 6.94248 151.663 7.13885 150.981C7.33522 150.299 8.35841 150.516 8.17238 151.157C7.87266 152.067 4.96845 161.709 6.99416 162.019C8.11037 162.185 8.23439 160.149 8.23439 160.149C8.23439 160.149 10.3014 150.919 11.242 151.105C12.1825 151.291 11.1799 156.738 10.7045 158.557C10.2291 160.376 10.8905 161.296 11.8621 160.851C12.5235 160.541 14.1048 155.012 14.5389 153.214C14.973 151.415 16.0582 146.434 17.5155 149.317C18.9727 152.201 21.1845 153.875 22.094 153.917C22.2989 153.893 22.4921 153.808 22.6487 153.674C22.8052 153.54 22.918 153.362 22.9725 153.163C23.0269 152.964 23.0206 152.753 22.9543 152.558C22.888 152.362 22.7647 152.191 22.6004 152.067C21.8181 151.303 21.1467 150.433 20.6057 149.483C20.1236 148.743 19.7739 147.924 19.5722 147.064C19.1557 145.35 18.9133 143.598 18.8487 141.835L18.6833 140.801C20.9984 129.339 27.6647 95.698 37.2868 74.2109L41.2349 82.3345L42.9505 88.3496L32.4292 114.322L77.305 113.733L70.6077 87.9569L78.7416 61.0852C87.5369 61.2815 110.119 61.6123 113.881 59.9069C118.615 57.8399 143.099 26.9168 143.099 26.9168C144.695 25.6766 146.224 24.3518 147.678 22.948C147.678 22.948 149.166 21.6975 148.267 20.7673Z" fill="#FFBE9D"/>
<path d="M30.4552 95.1296C31.7575 90.6854 38.4444 68.7126 38.4444 68.7126C38.4444 68.7126 41.731 86.6236 40.8628 88.7837C40.0642 90.6329 39.1208 92.4161 38.0413 94.1167C30.4552 105.661 31.4474 111.439 31.4474 111.439L77.2843 110.043C77.3876 103.635 73.5946 88.732 72.8091 86.3549C72.0236 83.9778 74.6385 76.1953 74.6385 76.1953C74.6385 76.1953 79.8061 70.9347 79.6201 68.2268C79.5219 65.7945 79.2211 63.3745 78.7209 60.9922L106.626 62.0257L105.748 43.1121L65.6675 39.1021C64.2722 43.0398 51.6528 41.1071 51.6528 41.1071C38.031 41.5619 37.1835 44.063 31.5197 48.4658C25.856 52.8686 16.4819 90.6544 16.4819 90.6544L30.4552 95.1296Z" fill="#4CAF4F"/>
<path d="M57.5543 90.6544C56.7599 90.7963 55.9509 90.838 55.1462 90.7784C53.6476 90.7784 51.5908 90.675 49.3274 90.4476C47.064 90.2203 45.0176 89.8999 43.5603 89.6105C42.7568 89.507 41.9689 89.3057 41.2142 89.0111C42.0223 89.0114 42.8285 89.0875 43.6224 89.2384C45.09 89.4245 47.126 89.6828 49.3791 89.9102C51.6322 90.1376 53.6786 90.2926 55.1565 90.396C55.9621 90.4062 56.765 90.4927 57.5543 90.6544Z" fill="#263238"/>
<path d="M60.6962 86.758C59.9016 87.1473 59.0613 87.4354 58.195 87.6158C54.0716 88.6993 49.8175 89.2037 45.555 89.1144C44.673 89.1431 43.7909 89.0598 42.9299 88.8664C43.8004 88.7564 44.6778 88.7115 45.555 88.732C47.1777 88.6803 49.4101 88.5667 51.8699 88.2773C54.3297 87.9879 56.5207 87.5745 58.071 87.2437C58.9321 87.0138 59.8098 86.8514 60.6962 86.758Z" fill="#263238"/>
<path d="M76.1164 69.3741C76.0955 70.162 75.9881 70.9453 75.796 71.7098C75.5273 73.1464 75.1139 75.1101 74.5868 77.2599C74.0597 79.4096 73.5533 81.394 73.0985 82.7376C72.9157 83.5066 72.6452 84.2522 72.2924 84.9596C72.3499 84.1741 72.4955 83.3976 72.7264 82.6445C73.1192 81.0322 73.5636 79.1719 74.0597 77.1358C74.5558 75.0998 75.0312 73.2394 75.4239 71.6271C75.5638 70.8511 75.7963 70.0947 76.1164 69.3741Z" fill="#263238"/>
<path d="M30.9409 92.494C28.5499 92.1248 26.1902 91.5755 23.882 90.8507C21.5233 90.2992 19.2088 89.5738 16.9573 88.6803C19.3472 89.0556 21.7065 89.6048 24.0163 90.3236C26.3755 90.8732 28.6902 91.5987 30.9409 92.494Z" fill="#263238"/>
<path d="M79.217 60.7648C78.8271 60.8319 78.4286 60.8319 78.0388 60.7648C76.9592 60.6541 75.8992 60.4003 74.8865 60.0103C73.1958 59.375 71.6566 58.393 70.368 57.1275C69.0793 55.862 68.0696 54.3409 67.4038 52.6619C66.6678 50.815 66.3536 48.8271 66.4839 46.8432C66.53 45.2068 67.0194 43.6137 67.8999 42.2337C68.5192 41.304 69.4442 40.6202 70.5147 40.301C70.8007 40.222 71.0965 40.1838 71.3932 40.1873C71.5999 40.1873 71.7033 40.1873 71.7033 40.1873C71.7033 40.1873 71.2692 40.1873 70.5767 40.4663C69.5947 40.8291 68.7617 41.5093 68.2099 42.399C66.8043 44.6108 66.4116 48.6519 67.9102 52.4242C68.6077 54.2029 69.6996 55.8002 71.1038 57.0958C72.2544 58.1559 73.5796 59.009 75.0209 59.6176C76.3735 60.1521 77.7806 60.5368 79.217 60.7648Z" fill="#263238"/>
<path d="M103.309 61.6536C103.05 58.4843 102.967 55.303 103.06 52.1245C102.98 48.9487 103.076 45.7708 103.35 42.6057C103.609 45.7716 103.691 48.9494 103.598 52.1245C103.685 55.3038 103.588 58.4855 103.309 61.6536Z" fill="#263238"/>
<path d="M65.3987 40.2596C65.5124 37.9549 65.7501 35.3504 65.7501 35.3504C65.7501 35.3504 71.4552 34.7199 71.7962 28.8288C72.1373 22.9377 71.7962 9.34684 71.7962 9.34684L61.461 4.05519L49.9888 13.0779L51.7562 42.5334L62.2775 43.2052C63.0817 43.2274 63.8619 42.9298 64.447 42.3777C65.0322 41.8255 65.3744 41.0638 65.3987 40.2596Z" fill="#FFBE9D"/>
<path d="M66.4219 24.1676C66.4219 24.1676 66.422 24.2813 66.3289 24.4157C66.252 24.5131 66.1526 24.5904 66.0391 24.6408C65.9257 24.6912 65.8017 24.7133 65.6778 24.705C65.0164 24.705 64.3756 23.9402 64.1482 23.0514C64.0401 22.6205 64.0401 22.1697 64.1482 21.7388C64.1694 21.5508 64.2372 21.371 64.3455 21.2158C64.4538 21.0605 64.5991 20.9348 64.7683 20.85C64.9073 20.7926 65.0634 20.7926 65.2024 20.85C65.3054 20.9012 65.3889 20.9846 65.4401 21.0877C65.5124 21.2634 65.4401 21.3771 65.4401 21.3668C65.4401 21.3564 65.4401 21.2634 65.3367 21.1601C65.2827 21.086 65.2033 21.0345 65.1136 21.0155C65.024 20.9964 64.9305 21.0111 64.851 21.0567C64.7242 21.1334 64.6189 21.2408 64.5448 21.3691C64.4707 21.4974 64.4303 21.6424 64.4272 21.7905C64.3402 22.1749 64.3402 22.5739 64.4272 22.9584C64.6339 23.7645 65.192 24.4156 65.6881 24.4777C65.7852 24.4908 65.8839 24.4838 65.9782 24.4572C66.0724 24.4305 66.1601 24.3847 66.2359 24.3226C66.3599 24.24 66.4013 24.1573 66.4219 24.1676Z" fill="#EB996E"/>
<path d="M75.3413 6.16358C74.5455 3.45574 71.6619 2.11216 69.0368 1.36802C65.037 0.231138 60.7169 -0.264958 56.8102 1.17164C52.9034 2.60825 48.2112 5.13005 48.2112 9.43986C45.9065 9.25382 44.5835 11.2692 43.674 13.7703C43.0925 15.2941 42.7441 16.8969 42.6405 18.5246C42.3511 24.1676 40.7698 31.9604 37.1111 36.0945C35.0441 38.3993 32.1812 39.9909 31.003 42.8641C29.9695 45.3549 30.5069 48.3108 29.5457 50.8326C28.6879 53.0547 26.7965 54.636 25.4116 56.5687C24.0007 58.7612 23.1703 61.2764 22.9986 63.878C22.8268 66.4796 23.3193 69.0822 24.4298 71.4411C25.5482 73.7396 27.1229 75.7863 29.0579 77.4565C30.9929 79.1268 33.2477 80.3856 35.6849 81.1563C40.5125 82.625 45.6606 82.6752 50.516 81.301C54.1599 80.4296 57.5592 78.7442 60.4585 76.371C63.4251 73.9485 65.4626 70.5745 66.2256 66.8213C66.9594 62.6045 65.7812 58.3153 64.9027 54.1192C62.1535 40.8591 62.939 40.1666 66.4116 27.8573C66.4943 27.6403 66.5356 27.4129 66.5976 27.1959C66.6597 26.9788 66.6907 26.8755 66.732 26.7101C66.8307 26.2235 66.8826 25.7286 66.887 25.2321C66.3798 25.4208 65.8293 25.4607 65.3002 25.3472C64.7711 25.2336 64.2854 24.9714 63.9001 24.5914C63.514 24.1861 63.2448 23.6839 63.1211 23.138C62.9974 22.5921 63.0237 22.0229 63.1974 21.4908C63.4412 20.9088 63.8045 20.3845 64.2639 19.9519C64.7232 19.5192 65.2683 19.1879 65.8638 18.9793C67.0111 18.5039 68.2409 18.2558 69.3675 17.7287C71.7549 16.5919 73.4086 14.2354 74.5351 11.7653C75.4613 10.0533 75.7471 8.06728 75.3413 6.16358Z" fill="#263238"/>
<path d="M66.8353 24.4467C67.0537 24.7693 67.2341 25.1161 67.3728 25.4802C67.6828 26.1313 68.0962 27.0512 68.551 28.1157L68.6337 28.3121H68.4166L67.3831 28.4051C66.67 28.4051 66.0705 28.5394 65.3677 28.5291C65.3065 28.5153 65.2498 28.4863 65.2028 28.4448C65.1558 28.4032 65.1201 28.3504 65.099 28.2914C65.0682 28.1974 65.0682 28.096 65.099 28.002C65.1229 27.8627 65.154 27.7247 65.192 27.5886L65.378 26.8548C65.4715 26.3653 65.6171 25.8871 65.8121 25.4285C65.7929 25.9275 65.7201 26.423 65.5951 26.9065L65.4504 27.6403C65.3987 27.8883 65.3057 28.2707 65.4504 28.2397C65.9672 28.2397 66.701 28.126 67.3831 28.0847L68.4166 27.9917L68.2823 28.219C67.8379 27.1855 67.4658 26.214 67.2487 25.5422C67.0584 25.1991 66.9191 24.83 66.8353 24.4467Z" fill="#4CAF4F"/>
<path d="M31.4474 111.439L77.2843 110.043L97.2314 187.909L93.5624 277.227H69.3262L72.2924 189.811L54.5674 135.602L57.2959 280.689L32.8013 281.051L30.2279 144.677C30.1142 140.884 28.8739 132.336 29.339 128.574L31.4474 111.439Z" fill="#263238"/>
<path d="M60.6652 136.708C59.9149 136.756 59.1617 136.71 58.4224 136.574C57.0375 136.409 55.1462 136.119 53.0688 135.706C50.9914 135.292 49.131 134.817 47.7875 134.435C47.0692 134.277 46.3744 134.027 45.7204 133.69C45.7204 133.535 49.0897 134.342 53.2238 135.179C57.3579 136.016 60.6859 136.553 60.6652 136.708Z" fill="#455A64"/>
<path d="M93.3143 272.328C93.3143 272.472 87.8263 272.596 81.0567 272.596C74.2871 272.596 68.7887 272.472 68.7887 272.328C68.7887 272.183 74.2767 272.059 81.0567 272.059C87.8366 272.059 93.3143 272.173 93.3143 272.328Z" fill="#455A64"/>
<path d="M57.0788 276.916C57.0788 277.071 51.7459 277.185 45.1726 277.185C38.5994 277.185 33.2767 277.071 33.2767 276.916C33.2767 276.761 38.6097 276.648 45.1726 276.648C51.7355 276.648 57.0788 276.772 57.0788 276.916Z" fill="#455A64"/>
<path d="M53.9162 276.544C53.7716 276.544 53.1308 244.846 52.4796 205.748C51.8285 166.65 51.4461 134.931 51.5805 134.931C51.7148 134.931 52.3763 166.619 53.0171 205.738C53.6579 244.857 54.0713 276.544 53.9162 276.544Z" fill="#455A64"/>
<path d="M90.0587 272.328C90.0473 272.187 90.0473 272.045 90.0587 271.904V270.664C90.0587 269.547 90.1414 267.946 90.2034 265.909C90.3481 261.775 90.5548 255.771 90.8131 248.412C91.3712 233.612 92.1567 213.21 93.0146 190.689C93.0146 190.472 93.0146 190.266 93.0146 190.08V190.152C87.5885 168.448 82.6793 148.749 79.1136 134.497L74.9795 117.64C74.5041 115.666 74.1424 114.126 73.884 113.051C73.76 112.544 73.6773 112.152 73.6049 111.852C73.5647 111.718 73.5404 111.579 73.5326 111.439C73.5863 111.569 73.6278 111.704 73.6566 111.842C73.7393 112.131 73.8426 112.524 73.9873 113.02C74.2664 114.053 74.6695 115.624 75.1862 117.588C76.2198 121.577 77.677 127.324 79.496 134.404C83.0927 148.646 88.0536 168.293 93.552 190.028V190.1C93.552 190.286 93.552 190.503 93.552 190.71C92.6322 213.231 91.795 233.622 91.1852 248.422C90.8648 255.791 90.5961 261.755 90.4101 265.909C90.3067 267.977 90.224 269.547 90.1724 270.664C90.1724 271.191 90.1104 271.604 90.1 271.904C90.1016 272.046 90.0877 272.188 90.0587 272.328Z" fill="#455A64"/>
<path d="M82.1522 188.261C80.4114 188.833 78.618 189.231 76.7985 189.449C74.5661 189.832 72.6644 190.1 71.8066 190.142V189.935C72.0857 190.018 72.2303 190.069 72.2303 190.111C72.2303 190.152 72.0547 190.111 71.7653 190.111H71.1451L71.7653 189.925C72.5714 189.687 74.4731 189.294 76.7055 188.891C78.496 188.503 80.3204 188.291 82.1522 188.261Z" fill="#455A64"/>
<path d="M81.7285 191.227C80.1164 191.301 78.5009 191.228 76.9019 191.01C75.2875 190.977 73.6792 190.8 72.096 190.483C75.326 190.219 78.5773 190.47 81.7285 191.227Z" fill="#455A64"/>
<path opacity="0.2" d="M31.251 113.082C31.7939 113.779 32.4776 114.354 33.2577 114.769C34.0377 115.184 34.8964 115.429 35.7779 115.49C37.6239 115.709 39.4913 115.674 41.3279 115.387C53.1618 114.074 65.6985 112.865 77.2843 110.043C62.2878 110.88 46.4439 110.601 31.4474 111.439L31.2924 112.72" fill="black"/>
<g opacity="0.2">
<path d="M46.7023 134.217L55.1565 167.022L54.5674 135.602L46.7023 134.217Z" fill="black"/>
</g>
</svg>
