<svg width="57" height="6" viewBox="0 0 57 6" fill="none" xmlns="http://www.w3.org/2000/svg">
<g opacity="0.2">
<path d="M4.2949 2.58908C4.2644 3.00481 4.11254 3.40243 3.85814 3.73265C3.60374 4.06286 3.258 4.31113 2.8638 4.44667C2.4696 4.5822 2.04428 4.59903 1.6406 4.49508C1.23692 4.39113 0.872636 4.17098 0.59293 3.8619C0.313224 3.55283 0.130411 3.16842 0.0671465 2.7564C0.00388199 2.34438 0.062949 1.92285 0.237041 1.5441C0.411132 1.16535 0.692591 0.846036 1.04649 0.62576C1.40038 0.405484 1.81114 0.293935 2.22784 0.304959C2.80364 0.337044 3.34358 0.594858 3.73054 1.02245C4.1175 1.45004 4.32027 2.01295 4.2949 2.58908Z" fill="white"/>
<path d="M10.8785 2.6201C10.8988 2.91147 10.8589 3.20388 10.7614 3.4792C10.6639 3.75452 10.5108 4.00684 10.3116 4.22044C10.1123 4.43404 9.87131 4.60438 9.60345 4.72084C9.33559 4.83729 9.04663 4.8974 8.75455 4.8974C8.46246 4.8974 8.1735 4.83729 7.90564 4.72084C7.63778 4.60438 7.39675 4.43404 7.19754 4.22044C6.99832 4.00684 6.8452 3.75452 6.74767 3.4792C6.65015 3.20388 6.61032 2.91147 6.63066 2.6201C6.61032 2.32872 6.65015 2.03628 6.74767 1.76096C6.8452 1.48564 6.99832 1.23332 7.19754 1.01972C7.39675 0.806118 7.63778 0.635786 7.90564 0.519327C8.1735 0.402868 8.46246 0.342762 8.75455 0.342762C9.04663 0.342762 9.33559 0.402868 9.60345 0.519327C9.87131 0.635786 10.1123 0.806118 10.3116 1.01972C10.5108 1.23332 10.6639 1.48564 10.7614 1.76096C10.8589 2.03628 10.8988 2.32872 10.8785 2.6201Z" fill="white"/>
<path d="M17.4724 2.65109C17.4419 3.06682 17.29 3.46445 17.0356 3.79466C16.7812 4.12488 16.4355 4.37315 16.0413 4.50868C15.6471 4.64422 15.2218 4.66105 14.8181 4.5571C14.4144 4.45314 14.0501 4.23299 13.7704 3.92392C13.4907 3.61484 13.3079 3.23043 13.2446 2.81841C13.1814 2.40639 13.2404 1.98487 13.4145 1.60612C13.5886 1.22736 13.8701 0.908051 14.224 0.687776C14.5779 0.4675 14.9886 0.355951 15.4053 0.366975C15.9802 0.401676 16.5185 0.660249 16.9049 1.08724C17.2914 1.51423 17.4951 2.07566 17.4724 2.65109Z" fill="white"/>
<path d="M24.056 2.68209C24.0255 3.09782 23.8736 3.49545 23.6192 3.82566C23.3648 4.15588 23.019 4.40415 22.6248 4.53968C22.2306 4.67522 21.8053 4.69205 21.4016 4.5881C20.998 4.48415 20.6337 4.26399 20.354 3.95492C20.0743 3.64584 19.8915 3.26147 19.8282 2.84945C19.7649 2.43743 19.824 2.01587 19.9981 1.63712C20.1722 1.25836 20.4536 0.939054 20.8075 0.718778C21.1614 0.498502 21.5722 0.386953 21.9889 0.397977C22.5637 0.432678 23.1021 0.691251 23.4885 1.11824C23.8749 1.54523 24.0786 2.10666 24.056 2.68209Z" fill="white"/>
<path d="M30.6395 2.70277C30.611 3.11912 30.4608 3.5179 30.2075 3.84956C29.9542 4.18122 29.609 4.43113 29.2148 4.56822C28.8207 4.70531 28.3949 4.72353 27.9905 4.62064C27.586 4.51774 27.2208 4.29827 26.94 3.98948C26.6593 3.68068 26.4755 3.2962 26.4115 2.88382C26.3475 2.47143 26.4062 2.04935 26.5801 1.67C26.754 1.29065 27.0356 0.970783 27.3898 0.75015C27.744 0.529516 28.1553 0.417822 28.5725 0.429002C29.1454 0.463691 29.6822 0.72083 30.0683 1.14558C30.4545 1.57032 30.6594 2.12909 30.6395 2.70277Z" fill="white"/>
<path d="M37.2334 2.73378C37.2052 3.14797 37.0565 3.54487 36.8056 3.87565C36.5547 4.20642 36.2126 4.45667 35.8214 4.59553C35.4301 4.73439 35.0068 4.75583 34.6035 4.65722C34.2003 4.55862 33.8346 4.34424 33.5516 4.04051C33.2686 3.73678 33.0805 3.35694 33.0106 2.94772C32.9407 2.53849 32.9919 2.11776 33.158 1.73728C33.3241 1.3568 33.5978 1.03316 33.9455 0.806228C34.2931 0.579297 34.6995 0.458951 35.1146 0.460006C35.6968 0.481557 36.2466 0.732982 36.6438 1.15917C37.0409 1.58536 37.2529 2.15157 37.2334 2.73378Z" fill="white"/>
<path d="M43.817 2.76478C43.8373 3.05615 43.7975 3.34859 43.7 3.62391C43.6024 3.89923 43.4493 4.15155 43.2501 4.36515C43.0509 4.57876 42.8098 4.74909 42.542 4.86555C42.2741 4.98201 41.9852 5.04208 41.6931 5.04208C41.401 5.04208 41.112 4.98201 40.8442 4.86555C40.5763 4.74909 40.3353 4.57876 40.1361 4.36515C39.9369 4.15155 39.7837 3.89923 39.6862 3.62391C39.5887 3.34859 39.5489 3.05615 39.5692 2.76478C39.5489 2.4734 39.5887 2.18096 39.6862 1.90564C39.7837 1.63032 39.9369 1.378 40.1361 1.1644C40.3353 0.950797 40.5763 0.780497 40.8442 0.664038C41.112 0.547578 41.401 0.487473 41.6931 0.487473C41.9852 0.487473 42.2741 0.547578 42.542 0.664038C42.8098 0.780497 43.0509 0.950797 43.2501 1.1644C43.4493 1.378 43.6024 1.63032 43.7 1.90564C43.7975 2.18096 43.8373 2.4734 43.817 2.76478Z" fill="white"/>
<path d="M50.4005 2.79579C50.3723 3.20998 50.2236 3.60691 49.9727 3.93769C49.7219 4.26847 49.3798 4.51868 48.9885 4.65754C48.5973 4.7964 48.174 4.81784 47.7707 4.71924C47.3674 4.62063 47.0018 4.40625 46.7188 4.10252C46.4357 3.79879 46.2477 3.41895 46.1778 3.00973C46.1078 2.60051 46.1591 2.17977 46.3252 1.79929C46.4913 1.41881 46.765 1.09517 47.1126 0.868239C47.4602 0.641307 47.8667 0.520993 48.2818 0.522048C48.864 0.5436 49.4138 0.794993 49.8109 1.22118C50.2081 1.64737 50.4201 2.21358 50.4005 2.79579Z" fill="white"/>
<path d="M56.9841 2.82679C56.9556 3.24314 56.8054 3.64192 56.5521 3.97358C56.2988 4.30524 55.9536 4.55514 55.5594 4.69224C55.1653 4.82933 54.7395 4.84758 54.3351 4.74469C53.9307 4.64179 53.5654 4.42229 53.2846 4.1135C53.0039 3.8047 52.8201 3.42022 52.7561 3.00784C52.6921 2.59545 52.7508 2.17337 52.9247 1.79402C53.0986 1.41467 53.3802 1.0948 53.7344 0.874169C54.0886 0.653535 54.4999 0.541873 54.9171 0.553052C55.49 0.587742 56.0268 0.844848 56.4129 1.26959C56.7991 1.69434 57.004 2.25311 56.9841 2.82679Z" fill="white"/>
</g>
</svg>
