<svg width="87" height="104" viewBox="0 0 87 104" fill="none" xmlns="http://www.w3.org/2000/svg">
<path d="M60.9861 22.4893L55.6634 24.391L53.3793 17.4353C49.1832 4.60927 35.8094 -2.20167 23.5208 2.12881C11.2321 6.45928 4.68991 20.5256 8.88602 33.3516L11.1701 40.3073L5.8268 42.2193C3.78929 43.0096 2.13469 44.5547 1.20693 46.5334C0.279173 48.5121 0.149612 50.7722 0.84519 52.844L15.6556 98.1021C15.963 99.1277 16.4735 100.081 17.1566 100.905C17.8398 101.73 18.6817 102.409 19.6323 102.901C20.5829 103.394 21.6228 103.69 22.6903 103.773C23.7577 103.856 24.831 103.724 25.8462 103.383L81.0055 83.6534C83.0699 82.8645 84.748 81.3057 85.6867 79.3049C86.6254 77.3041 86.7516 75.0173 86.0388 72.9254L71.218 27.6672C70.9026 26.6445 70.3844 25.6958 69.6943 24.8777C69.0042 24.0597 68.1564 23.389 67.2015 22.9057C66.2465 22.4225 65.204 22.1365 64.1362 22.065C63.0683 21.9934 61.997 22.1377 60.9861 22.4893ZM18.9422 29.724C17.8108 26.389 18.0139 22.7456 19.509 19.557C21.004 16.3685 23.675 13.8822 26.9624 12.6191C28.5857 12.0637 30.3042 11.841 32.0154 11.9642C33.7266 12.0875 35.3954 12.5542 36.9224 13.3364C38.4493 14.1187 39.803 15.2005 40.9027 16.5174C42.0024 17.8342 42.8256 19.3591 43.3231 21.001L45.5969 27.9566L21.216 36.6796L18.9422 29.724ZM49.948 69.8868L53.7307 81.4416C53.8002 81.6733 53.7778 81.9229 53.6681 82.1384C53.5584 82.354 53.3698 82.519 53.1416 82.5992L47.8396 84.4905C47.6286 84.549 47.4032 84.5236 47.2105 84.4196C47.0178 84.3155 46.8729 84.1409 46.8061 83.9324L42.9924 72.4293C40.8895 72.3147 38.8718 71.5604 37.2094 70.2675C35.5471 68.9745 34.3193 67.2046 33.6907 65.1946C32.7918 62.5373 32.9557 59.6353 34.1482 57.0962C35.3407 54.5571 37.4693 52.5778 40.0882 51.5727C41.3813 51.1309 42.7501 50.954 44.113 51.0524C45.4759 51.1508 46.805 51.5227 48.0212 52.1457C49.2374 52.7687 50.3157 53.6302 51.1918 54.6788C52.068 55.7275 52.724 56.9417 53.1209 58.2493C53.7859 60.2911 53.8409 62.4825 53.2792 64.555C52.7174 66.6276 51.5634 68.4913 49.9584 69.9178L49.948 69.8868Z" fill="#4CAF4F"/>
<path d="M55.4257 24.267C55.4257 24.4116 45.5556 28.122 33.2773 32.5352C20.999 36.9483 10.9841 40.4933 10.9324 40.39C10.8807 40.2866 20.8026 36.5452 33.0912 32.1218C45.3798 27.6983 55.374 24.1326 55.4257 24.267Z" fill="#263238"/>
<path d="M67.1459 26.1686C67.1915 26.2583 67.2295 26.3517 67.2596 26.4477C67.3422 26.6544 67.4353 26.9231 67.5593 27.2538C67.828 28.0083 68.2001 29.0522 68.6652 30.3544L72.6339 41.9092C74.2876 46.8082 76.2616 52.6166 78.4527 59.0658C79.4862 62.3007 80.7058 65.67 81.8426 69.215C82.4511 71.0418 82.714 72.966 82.6178 74.8891C82.5301 75.8892 82.2456 76.8622 81.7806 77.7519C81.2839 78.6388 80.6206 79.4213 79.8272 80.0567C78.2305 81.2223 76.4582 82.1259 74.5769 82.7335L69.2543 84.6456L59.1774 88.2526L42.1139 94.3297L30.5901 98.3811L27.4895 99.4146L26.6626 99.6834C26.5742 99.7227 26.48 99.7471 26.3836 99.7557C26.3836 99.7557 26.4663 99.7557 26.642 99.6317L27.4481 99.3113L30.5487 98.1434L42.0105 93.9266L59.043 87.7255L69.0993 84.0875L74.4219 82.1651C76.2497 81.5822 77.9705 80.706 79.5172 79.571C80.2554 78.9814 80.8731 78.255 81.3362 77.4315C81.7739 76.6086 82.0377 75.7045 82.1114 74.7754C82.2065 72.9225 81.9541 71.0681 81.3672 69.308C80.251 65.794 79.0728 62.3937 78.0083 59.1588C75.8585 52.6993 73.8741 46.8702 72.3032 41.9713C70.7322 37.0723 69.4093 33.1346 68.4998 30.3648C68.0657 29.0108 67.735 27.9566 67.4663 27.1918L67.2182 26.365C67.1871 26.3024 67.1628 26.2365 67.1459 26.1686Z" fill="#263238"/>
<path d="M38.0418 11.9163C38.0418 11.9163 37.4941 11.6476 36.4812 11.2342C35.0375 10.6795 33.5106 10.372 31.9647 10.3247C29.6733 10.2461 27.393 10.6768 25.2881 11.5856C22.7285 12.7173 20.5398 14.5477 18.9733 16.8669C17.3963 19.1794 16.5501 21.9123 16.5445 24.7114C16.566 27.0055 16.914 29.2849 17.578 31.481C18.1155 33.362 18.6735 34.8606 19.0456 35.9045C19.2651 36.4347 19.4448 36.9805 19.5831 37.5374C19.2895 37.0417 19.0437 36.5191 18.8492 35.9768C18.4255 34.9433 17.8157 33.4757 17.2163 31.5843C16.4805 29.3652 16.0799 27.0487 16.0277 24.7114C16.0002 21.8066 16.8661 18.9635 18.5082 16.5672C20.1294 14.1633 22.4075 12.2762 25.0711 11.1308C27.2416 10.217 29.5931 9.81392 31.944 9.95261C33.5235 10.0331 35.075 10.4008 36.5226 11.0378C36.9096 11.2164 37.2827 11.4237 37.6388 11.6579C37.7858 11.7225 37.9218 11.8097 38.0418 11.9163Z" fill="#263238"/>
<path d="M38.5172 52.3582C38.6822 52.2582 38.855 52.1718 39.034 52.0998C39.5513 51.8664 40.0872 51.6762 40.636 51.5314C41.5071 51.2743 42.4057 51.1216 43.3128 51.0766C44.5467 51.0103 45.7812 51.1967 46.9405 51.6244C49.5863 52.5546 52.0151 55.2521 53.214 58.8591C53.7889 60.7948 53.7889 62.8558 53.214 64.7915C52.5765 66.8924 51.4338 68.8051 49.886 70.3622L49.948 70.0832C51.3226 73.8555 52.8213 77.9483 54.3715 82.2168L54.4646 82.4752L54.2062 82.5682L51.8394 83.3536L46.6718 85.0796L46.4134 85.1623L46.3307 84.9039C44.9147 80.6251 43.3645 76.6357 42.1966 72.7187L42.424 72.8944C40.4035 72.7265 38.477 71.9682 36.8843 70.7136C35.4433 69.6038 34.2617 68.1929 33.4219 66.5795C32.6642 65.1487 32.287 63.5472 32.3264 61.9286C32.3742 60.2744 32.7873 58.6513 33.5359 57.1754C34.2846 55.6995 35.3504 54.4074 36.6569 53.3917C37.1947 52.9551 37.7982 52.6063 38.4449 52.3582C37.8611 52.7046 37.2953 53.0806 36.7499 53.4847C35.3147 54.699 34.2151 56.2612 33.5563 58.0219C32.9909 59.3496 32.7264 60.7861 32.7818 62.2281C32.8372 63.6701 33.2111 65.082 33.8767 66.3625C34.7024 67.9146 35.8556 69.2688 37.2563 70.3312C38.7757 71.5237 40.6125 72.2426 42.5377 72.3983H42.7133L42.765 72.5533C43.9019 76.398 45.4625 80.4184 46.8991 84.7179L46.5581 84.5525L51.7257 82.8265L54.0821 82.0307L53.9168 82.3821C52.3768 78.1137 50.8886 74.0106 49.5243 70.2382V70.0832L49.6483 69.9591C51.1508 68.4666 52.2712 66.6337 52.9143 64.6158C53.4624 62.7642 53.4624 60.7934 52.9143 58.9418C51.7877 55.4691 49.4623 52.8336 46.9405 51.9034C45.8242 51.473 44.6325 51.2726 43.4368 51.3143C42.5441 51.3348 41.6565 51.4561 40.791 51.6761C39.251 52.0585 38.5276 52.4099 38.5172 52.3582Z" fill="#263238"/>
</svg>
