<svg width="87" height="149" viewBox="0 0 87 149" fill="none" xmlns="http://www.w3.org/2000/svg">
<path d="M19.4406 110.606C3.47264 99.4542 -0.144697 78.7527 0.485754 60.1389C0.589107 57.0383 0.248056 53.7517 1.726 51.0335C3.20394 48.3153 6.65591 46.4447 9.4361 47.7469C11.7409 48.8321 12.7434 51.5193 14.0353 53.7413C15.7591 56.701 18.2852 59.1124 21.3217 60.697C23.2957 61.7305 25.7452 62.3506 27.6985 61.2758C30.3857 59.7978 30.6957 56.1081 30.6751 53.0075C30.6751 47.2405 30.6406 41.4803 30.5717 35.727C30.386 32.6376 30.7001 29.5385 31.5019 26.5493C32.4631 23.614 34.6025 20.8959 37.5273 20.069C40.4522 19.2422 44.1006 20.9475 44.762 23.9654C44.8759 25.2437 44.9069 26.5279 44.855 27.8102C44.9377 29.1021 45.5372 30.518 46.7464 30.9107C47.9556 31.3035 49.2165 30.4043 50.1467 29.4948C53.33 26.3942 55.5004 22.3531 57.5157 18.3637C59.5311 14.3743 61.5051 10.2712 64.399 6.8709C67.2929 3.4706 71.2926 0.773099 75.7678 0.514718C80.243 0.256336 84.9042 3.00552 86.0204 7.34633C87.1366 11.6871 84.6045 16.121 81.8863 19.6453C77.7846 24.8767 72.9495 29.4889 67.5306 33.3395C66.4728 33.9171 65.6286 34.8193 65.1225 35.913C64.4507 37.9801 66.4041 40.0471 68.4401 40.6982C70.7449 41.463 73.246 41.2253 75.6748 41.5147C78.1036 41.8041 80.6874 42.8583 81.6072 45.132C82.8681 48.2946 80.2223 51.6019 77.6282 53.7723C72.4192 58.1132 66.5044 61.5285 60.1409 63.8699C57.8671 64.6967 55.4797 65.4305 53.64 67.0222C51.8003 68.6138 50.7048 71.394 51.8107 73.5747C52.9166 75.7555 55.7588 76.4479 58.1462 76.0035C60.5336 75.5591 62.6524 74.2775 64.9261 73.4197C69.1739 71.8177 74.6516 72.1071 77.3284 75.7761C78.1577 77.04 78.6827 78.479 78.862 79.9799C79.0413 81.4809 78.8702 83.0031 78.362 84.4267C77.3276 87.26 75.7356 89.8571 73.6801 92.0645C66.9109 100.152 58.1157 106.297 48.1933 109.872C38.3438 113.283 29.2178 114.213 19.4303 110.627" fill="#4CAF4F"/>
<path d="M81.4729 3.06753C81.4729 3.06753 81.3799 3.17089 81.1732 3.35692L80.2533 4.1734C79.4472 4.89687 78.2586 5.95107 76.76 7.34633C72.5111 11.2915 68.5656 15.5513 64.9571 20.0897C62.6524 22.9526 60.2649 26.1978 57.7225 29.7222C55.18 33.2465 52.5548 37.0499 49.9504 41.091C47.1736 45.3524 44.6308 49.7617 42.3332 54.2994C41.1343 56.6662 40.0802 59.1363 38.995 61.6581L35.791 69.3579C31.5678 79.0565 27.8896 88.9835 24.7736 99.0925C22.2637 107.364 20.5336 115.851 19.606 124.445C19.0049 130.244 18.9081 136.085 19.3166 141.901C19.482 143.968 19.637 145.549 19.7817 146.624C19.8437 147.141 19.8851 147.555 19.9264 147.854V148.278C19.8819 148.144 19.8508 148.005 19.8334 147.865C19.7817 147.565 19.7197 147.162 19.637 146.645C19.451 145.611 19.2546 143.979 19.0686 141.911C18.5699 136.085 18.6045 130.224 19.1719 124.404C20.042 115.773 21.7343 107.246 24.2259 98.9375C27.3157 88.8001 30.9838 78.8482 35.2123 69.1305L38.4989 61.4618C39.5841 58.9503 40.6486 56.4595 41.8578 54.0824C44.1714 49.531 46.735 45.1111 49.5369 40.8429C52.1827 36.7088 54.8493 32.9675 57.3607 29.4741C59.8722 25.9808 62.301 22.7149 64.5954 19.8623C68.2405 15.3359 72.2391 11.1059 76.5533 7.21197C78.0829 5.83738 79.3025 4.80385 80.1293 4.11139L81.0905 3.33625C81.2083 3.23366 81.3365 3.14361 81.4729 3.06753Z" fill="#263238"/>
<path d="M41.9922 54.0617C41.8464 53.636 41.7459 53.196 41.6925 52.7492C41.5271 51.8913 41.3411 50.6821 41.124 49.1111C40.6796 46.0105 40.2249 41.7627 39.7391 37.0602C39.2533 32.3577 38.7056 28.0995 38.2508 25.03C38.0131 23.5004 37.8064 22.2705 37.6617 21.4126C37.5488 20.9736 37.4898 20.5224 37.486 20.069C37.664 20.4831 37.7923 20.9167 37.8684 21.3609C38.0958 22.2084 38.3542 23.428 38.6436 24.968C39.2327 28.0685 39.8114 32.2853 40.2972 36.9982C40.7829 41.7111 41.1964 45.8452 41.5168 49.0595C41.6718 50.5064 41.8062 51.7363 41.9095 52.7182C41.9898 53.1612 42.0175 53.6122 41.9922 54.0617Z" fill="#263238"/>
<path d="M81.7623 46.641C81.2593 46.7505 80.7472 46.8128 80.2327 46.8271C79.1991 46.9201 77.7315 47.0441 75.9125 47.2508C72.2745 47.6435 67.2722 48.367 61.7842 49.4005C56.2962 50.4341 51.3663 51.6019 47.8213 52.5011C46.054 52.9559 44.6277 53.3693 43.6872 53.6483C43.185 53.8268 42.6654 53.9515 42.1369 54.0204C42.6145 53.7802 43.1125 53.5831 43.6252 53.4313C44.5967 53.0902 46.0023 52.6148 47.7593 52.1084C51.2836 51.0748 56.2135 49.8449 61.7222 48.7907C66.3886 47.8985 71.0972 47.2431 75.8298 46.8271C77.6592 46.672 79.1371 46.61 80.1707 46.5893C80.7016 46.5532 81.2348 46.5706 81.7623 46.641Z" fill="#263238"/>
<path d="M24.7323 98.214C24.6221 98.0644 24.5318 97.9011 24.4636 97.7282L23.7815 96.2916C23.1924 95.041 22.3965 93.1911 21.4457 90.9276C19.5233 86.3801 17.0739 80.0136 14.4694 72.9442C11.8649 65.8749 9.46711 59.5084 7.6481 54.9092C6.75927 52.6768 6.02549 50.8475 5.47772 49.4832L4.89892 48.0053C4.8187 47.8348 4.76305 47.6539 4.73358 47.4678C4.84377 47.6174 4.93408 47.7807 5.00228 47.9536L5.68441 49.3902C6.26318 50.6408 7.06934 52.4908 8.02019 54.7542C9.94255 59.3017 12.392 65.6682 14.9965 72.7376C17.601 79.8069 19.9988 86.1734 21.8178 90.7726C22.7066 93.005 23.4404 94.8343 23.9778 96.1986C24.2156 96.7877 24.4119 97.2321 24.567 97.6766C24.6472 97.847 24.7028 98.0279 24.7323 98.214Z" fill="#263238"/>
<path d="M77.5248 81.1918C77.3593 81.2868 77.1821 81.3597 76.9977 81.4088L75.4681 81.9256L69.8147 83.755C65.0399 85.3052 58.446 87.517 51.2113 89.9561C43.9766 92.3952 37.3517 94.5656 32.5458 96.0126C30.148 96.7464 28.1946 97.3045 26.8407 97.6766L25.2801 98.0796C25.0986 98.1373 24.9115 98.1754 24.722 98.1933C24.8875 98.0983 25.0647 98.0253 25.2491 97.9763L26.7787 97.4595L32.4321 95.6302C37.207 94.0799 43.8009 91.8681 51.0356 89.429C58.2702 86.9899 64.8848 84.8195 69.6907 83.3725C72.0988 82.6387 74.0418 82.0806 75.4061 81.7086L76.9667 81.3055C77.1482 81.2478 77.3353 81.2097 77.5248 81.1918Z" fill="#263238"/>
</svg>
