<svg width="55" height="61" viewBox="0 0 55 61" fill="none" xmlns="http://www.w3.org/2000/svg">
<path d="M27.5657 0.143671H27.0799L25.6743 0.24703C24.9137 0.292731 24.1572 0.392904 23.4109 0.546762C22.9275 0.61464 22.448 0.707774 21.9743 0.825803L20.3723 1.27023C17.6457 2.10675 15.0731 3.3808 12.7552 5.04259C9.69277 7.26548 7.13558 10.1115 5.25183 13.3935C4.14465 15.2854 3.26356 17.3008 2.62667 19.3983C1.95746 21.678 1.57215 24.0315 1.47947 26.4056C1.41787 27.6527 1.43858 28.9026 1.54148 30.147C1.54148 30.7774 1.71718 31.4079 1.79986 32.0486C1.8694 32.6946 1.99036 33.334 2.16159 33.9607C3.09096 38.108 4.97668 41.9807 7.66832 45.2699C10.36 48.559 13.783 51.1737 17.6645 52.9052C20.4737 54.1174 23.4847 54.7939 26.5425 54.8999C29.7007 55.0736 32.862 54.6205 35.8442 53.5667L36.7537 53.2256H36.8777L36.9811 53.2876L50.0139 59.9022L49.6315 60.2329C48.2362 55.9128 46.8926 51.727 45.5904 47.7066V47.5515L45.7041 47.4379C48.8656 44.2535 51.2126 40.3536 52.546 36.0691C53.7537 32.152 54.1062 28.0212 53.5795 23.9561C53.1111 20.3434 51.9495 16.8552 50.1586 13.6829C48.6148 10.9578 46.6232 8.51207 44.2675 6.44819C42.3239 4.81461 40.1727 3.44536 37.8699 2.37609C36.1275 1.6246 34.3129 1.05319 32.4542 0.67078L30.3872 0.329714L28.8886 0.216026L27.9791 0.154017H27.669C27.7721 0.142583 27.876 0.142583 27.9791 0.154017H28.8989L30.3975 0.216026L32.4646 0.515742C34.3463 0.870159 36.1857 1.42095 37.9526 2.15906C40.2949 3.21562 42.4849 4.58172 44.4638 6.22081C46.8629 8.27553 48.8967 10.7217 50.479 13.4555C52.3208 16.6619 53.518 20.1974 54.0033 23.8631C54.5736 27.991 54.2457 32.1933 53.0421 36.1828C51.7 40.5565 49.3167 44.5392 46.0968 47.7892L46.1588 47.5205C47.4611 51.541 48.815 55.7267 50.2206 60.0365L50.4169 60.667L49.8278 60.3673L36.7951 53.763H37.0224L36.0923 54.1041C33.0526 55.1737 29.8328 55.6372 26.6148 55.4684C23.4912 55.3494 20.4172 54.6484 17.5508 53.4013C12.0831 51.0597 7.53409 46.9898 4.60071 41.8155C3.25084 39.4257 2.26503 36.848 1.67583 34.1674C1.51449 33.5245 1.39367 32.8721 1.3141 32.214C1.23142 31.5629 1.09706 30.9221 1.06605 30.2813C0.786339 26.6039 1.17502 22.9062 2.21327 19.3673C2.86601 17.2409 3.77165 15.2006 4.91077 13.2901C6.83945 9.97832 9.44992 7.11422 12.5692 4.88757C14.9253 3.22153 17.541 1.95728 20.3103 1.14619L21.9329 0.732789C22.4105 0.622011 22.8935 0.535771 23.3799 0.474407C24.134 0.334775 24.8975 0.251855 25.664 0.226355L27.0799 0.174692C27.2409 0.153007 27.4032 0.142632 27.5657 0.143671Z" fill="#4CAF4F"/>
<path d="M33.4567 24.2455H31.5447L27.4106 18.4371V14.6234C27.4106 14.6234 24.4547 14.4373 24.8061 19.4293C25.1575 24.4212 24.8061 23.15 24.8061 23.15C24.8061 23.15 18.5326 23.15 18.0159 23.7184C17.4991 24.2868 17.4681 30.3433 17.3957 33.7229C17.3561 34.5376 17.5899 35.3422 18.0599 36.0088C18.5299 36.6755 19.2092 37.1659 19.9899 37.4023C20.2087 37.4629 20.4346 37.4942 20.6617 37.4953C22.2326 37.4953 30.2218 36.2241 30.2218 36.2241H33.5187L33.4567 24.2455Z" fill="#4CAF4F"/>
<path d="M38.9241 23.2223L37.7459 36.2861H34.48V23.491L38.9241 23.2223Z" fill="#4CAF4F"/>
</svg>
