<svg width="5" height="5" viewBox="0 0 5 5" fill="none" xmlns="http://www.w3.org/2000/svg">
<path d="M4.87845 2.62009C4.89879 2.91147 4.85894 3.20388 4.76142 3.4792C4.66389 3.75452 4.51077 4.00683 4.31155 4.22044C4.11234 4.43404 3.87131 4.60437 3.60345 4.72083C3.33559 4.83729 3.04663 4.8974 2.75455 4.8974C2.46246 4.8974 2.1735 4.83729 1.90564 4.72083C1.63778 4.60437 1.39675 4.43404 1.19754 4.22044C0.998325 4.00683 0.845197 3.75452 0.747672 3.4792C0.650147 3.20388 0.610318 2.91147 0.630656 2.62009C0.610318 2.32872 0.650147 2.03627 0.747672 1.76096C0.845197 1.48564 0.998325 1.23332 1.19754 1.01972C1.39675 0.806114 1.63778 0.635782 1.90564 0.519323C2.1735 0.402864 2.46246 0.342758 2.75455 0.342758C3.04663 0.342758 3.33559 0.402864 3.60345 0.519323C3.87131 0.635782 4.11234 0.806114 4.31155 1.01972C4.51077 1.23332 4.66389 1.48564 4.76142 1.76096C4.85894 2.03627 4.89879 2.32872 4.87845 2.62009Z" fill="#4CAF4F"/>
</svg>
